<svg id="Capa_1" enable-background="new 0 0 512 512" height="512" viewBox="0 0 512 512" width="512" xmlns="http://www.w3.org/2000/svg"><g><g><path d="m399 143v68h-30v-68c0-62.31-50.69-113-113-113s-113 50.69-113 113v68h-30v-68c0-78.85 64.15-143 143-143s143 64.15 143 143z" fill="#d4f4ee"/></g><path d="m399 143v68h-30v-68c0-62.31-50.69-113-113-113v-30c78.85 0 143 64.15 143 143z" fill="#b0daed"/><path d="m446 196v126c0 104.77-85.23 190-190 190s-190-85.23-190-190v-126z" fill="#fff48a"/><path d="m446 196v126c0 104.77-85.23 190-190 190v-316z" fill="#fcd370"/><path d="m311 321c0 25.13-16.94 46.38-40 52.92-4.77 1.35-9.8 2.08-15 2.08s-10.23-.73-15-2.08c-23.06-6.54-40-27.79-40-52.92 0-30.33 24.67-55 55-55s55 24.67 55 55z" fill="#fff"/><g><path d="m241 346h30v74.67h-30z" fill="#fff"/></g><path d="m311 321c0 25.13-16.94 46.38-40 52.92v46.75h-15v-154.67c30.33 0 55 24.67 55 55z" fill="#d4f4ee"/></g></svg>